<?xml version="1.0" standalone="no"?>
<!DOCTYPE svg PUBLIC "-//W3C//DTD SVG 20010904//EN"
 "http://www.w3.org/TR/2001/REC-SVG-20010904/DTD/svg10.dtd">
<svg version="1.0" xmlns="http://www.w3.org/2000/svg"
 width="64.000000pt" height="64.000000pt" viewBox="0 0 64.000000 64.000000"
 preserveAspectRatio="xMidYMid meet">

<g transform="translate(0.000000,64.000000) scale(0.100000,-0.100000)"
fill="#000000" stroke="none">
<path d="M241 625 c-70 -20 -111 -46 -160 -101 -72 -82 -94 -203 -57 -311 31
-91 124 -176 219 -198 l27 -7 0 105 0 106 -42 3 -43 3 -3 47 -3 48 45 0 46 0
0 63 c0 72 16 102 66 123 35 15 91 18 118 8 11 -4 16 -19 16 -45 0 -37 -2 -39
-30 -39 -41 0 -70 -31 -70 -75 0 -35 0 -35 46 -35 l47 0 -7 -37 c-3 -21 -6
-44 -6 -50 0 -8 -15 -13 -40 -13 l-40 0 0 -106 0 -106 28 7 c135 32 236 162
236 305 0 88 -29 156 -93 221 -83 83 -193 113 -300 84z"/>
</g>
</svg>
