<?xml version="1.0" standalone="no"?>
<!DOCTYPE svg PUBLIC "-//W3C//DTD SVG 20010904//EN"
 "http://www.w3.org/TR/2001/REC-SVG-20010904/DTD/svg10.dtd">
<svg version="1.0" xmlns="http://www.w3.org/2000/svg"
 width="64.000000pt" height="64.000000pt" viewBox="0 0 64.000000 64.000000"
 preserveAspectRatio="xMidYMid meet">

<g transform="translate(0.000000,64.000000) scale(0.100000,-0.100000)"
fill="#000000" stroke="none">
<path d="M111 592 c-71 -35 -76 -52 -79 -257 -3 -147 0 -190 12 -220 15 -34
18 -36 48 -30 18 4 44 12 57 17 l24 9 -22 16 c-39 27 -51 73 -51 195 0 188 30
218 220 218 190 0 220 -30 220 -216 l0 -112 36 11 35 11 -3 142 c-3 160 -12
182 -79 216 -50 26 -368 26 -418 0z"/>
<path d="M172 467 c-20 -21 -22 -34 -22 -149 0 -125 0 -127 26 -147 36 -29
125 -27 229 3 l80 23 3 123 c2 115 1 125 -19 147 -21 22 -29 23 -149 23 -119
0 -128 -1 -148 -23z m283 -32 c0 -23 -34 -33 -45 -14 -13 20 1 40 24 37 13 -2
21 -10 21 -23z m-59 -39 c73 -73 27 -186 -76 -186 -69 0 -110 43 -110 115 0
55 53 105 110 105 34 0 48 -6 76 -34z"/>
<path d="M275 365 c-14 -13 -25 -33 -25 -45 0 -27 43 -70 70 -70 27 0 70 43
70 70 0 12 -11 32 -25 45 -13 14 -33 25 -45 25 -11 0 -32 -11 -45 -25z"/>
</g>
</svg>
