<?xml version="1.0" standalone="no"?>
<!DOCTYPE svg PUBLIC "-//W3C//DTD SVG 20010904//EN"
 "http://www.w3.org/TR/2001/REC-SVG-20010904/DTD/svg10.dtd">
<svg version="1.0" xmlns="http://www.w3.org/2000/svg"
 width="64.000000pt" height="64.000000pt" viewBox="0 0 64.000000 64.000000"
 preserveAspectRatio="xMidYMid meet">

<g transform="translate(0.000000,64.000000) scale(0.100000,-0.100000)"
fill="#000000" stroke="none">
<path d="M63 563 c138 -199 187 -271 187 -278 0 -3 -54 -69 -121 -146 -114
-132 -119 -139 -91 -139 24 0 44 18 131 120 57 67 107 120 112 118 4 -2 43
-55 87 -118 l79 -115 91 -3 c51 -1 92 0 92 2 0 3 -54 84 -120 180 -66 96 -120
179 -120 185 0 6 44 61 98 123 136 158 129 148 99 148 -21 0 -46 -23 -123
-112 -53 -62 -100 -114 -104 -116 -3 -1 -41 49 -85 113 l-78 115 -94 0 -94 0
54 -77z m268 -195 c89 -128 177 -254 196 -280 l35 -48 -44 0 -43 0 -190 272
c-104 149 -191 275 -193 280 -2 4 14 8 37 8 l40 0 162 -232z"/>
</g>
</svg>
